<svg id="Layer_1" data-name="Layer 1" xmlns="http://www.w3.org/2000/svg" viewBox="0 0 189.41 222.04"><title>Home</title><path d="M600.43,247.42c-0.19-5.19-.36-10.4-1-15.55-1.07-9.19-2.54-18.33-3.66-27.52-0.57-4.67.1-9.65-1.28-14a214.69,214.69,0,0,0-9.85-25c-5.75-12.47-13.41-23.75-22-34.52-10-12.55-19.14-25.77-28.6-38.74-2.35-3.22-5.6-6.29-6.54-9.91-3.81-14.59-10.65-27.62-19-40-1-1.46-3.07-2.19-4.65-3.26a36.07,36.07,0,0,0-2.73,4.72c-2.64,6.72-4.57,13.78-7.85,20.17-2.48,4.84-6.87,8.66-10,13.25-7.7,11.46-15,23.19-22.73,34.62-5.49,8.11-11.34,16-17.22,23.81-6.9,9.21-14.2,18.13-21,27.45-2.87,4-5,8.53-7.13,13-1.64,3.36-4,7-4,10.44,0,11,.93,22,1.71,33,0.26,3.68,1.23,7.3,1.81,11,0.67,4.27,1.65,8.53,1.78,12.82,0.14,4.7-.76,9.43-0.68,14.14,0,1.31,1.89,3.69,2.95,3.72,5.34,0.11,10.69-.37,16-0.69,4.86-.3,9.73-1,14.58-0.94,10.19,0.1,20.37.84,30.55,0.67,2.49,0,5.41-1,4.49-6.13-1.51-8.41-1.2-17.18-1.16-25.8a50,50,0,0,1,1.9-12.79c0.79-2.87-.5-7.67,5.5-7.58,8.93,0.31,17.41.51,25.86,1,4,0.22,7.19,1.62,7,6.64-0.18,4.74-.16,9.49,0,14.23,0.19,5.71.59,11.41,0.91,17.11,0.39,6.75,4.38,10.19,11.06,9.81,7.41-.42,14.84-0.94,22.27-0.9,11.12,0.06,22.24.65,33.36,0.81,3,0.05,6.59.21,8.7-1.33C601.25,254.11,600.52,250.08,600.43,247.42Zm-23.17-6.84c-6.12.23-12.23,0.79-18.35,0.85a78.42,78.42,0,0,1-12.24-1c-0.95-.15-2.17-1.84-2.35-3-0.37-2.28,0-4.67-.13-7-0.27-7.06-.8-14.11-0.85-21.16,0-4.71.72-9.42,0.83-14.14,0.12-5.29-1.83-7.44-6.95-7-7.91.64-15.77,1.94-23.67,2.65-2.48.23-5-.78-7.57-0.81-9.53-.11-19-0.06-28.58,0-5.84,0-7.65,2.68-7.4,8.41,0.23,5.26-.69,10.57-1.16,15.86-0.7,7.64-4.17,15-1.62,23,1,3-.67,5.3-4.42,5.26-6.92-.07-13.84,0-20.77,0-5.57,0-7.3-1.55-7.5-7.06-0.36-10.33-.49-20.67-1-31-0.32-6.47-1.51-12.91-1.67-19.38a16.72,16.72,0,0,1,2.43-8.28c3.9-6.71,8.15-13.21,12.45-19.68,6.11-9.21,12.13-18.48,18.65-27.4,8.79-12,18-23.74,27-35.58,1.28-1.67,2.65-3.28,4-4.92,1.91-2.53,3.28-4.64,4.79-6.64,2.42-3.17,4.49-3.06,6.5.58a149.36,149.36,0,0,0,8.69,14.65c4.43,6.23,9.47,12,14.15,18.06,6.12,7.91,12.28,15.8,18.2,23.86,6.21,8.46,11.9,17.33,18.31,25.64,8.13,10.53,13.17,21.72,13,35.48-0.12,11.15,1.63,22.33,2.62,33.49C583,238,581,240.43,577.26,240.58Z" transform="translate(-411.3 -38.98)" style="fill:#111820"/></svg>