<svg id="Layer_1" data-name="Layer 1" xmlns="http://www.w3.org/2000/svg" viewBox="0 0 113.3 222.82"><title>About</title><path id="Path_297" data-name="Path 297" d="M1363.43,167.18a1.35,1.35,0,0,1-.05-0.66,49.76,49.76,0,0,0-1.32-9.88c-0.82-13.07-1.21-26.14-1.54-39.21a21.63,21.63,0,0,1,.16-4.61,46.16,46.16,0,0,1-1.1-15.76,8.42,8.42,0,0,1-.6-1.48,84.59,84.59,0,0,0-3-10.93c-5-12.13-8.9-24.54-21.8-34.87a41.18,41.18,0,0,0-43.71-4.61,45.35,45.35,0,0,0-15.92,12.46,82.76,82.76,0,0,0-18.12,33.49c0.44,5.33.6,10.65,0.55,15.92a41.1,41.1,0,0,1-2.86,15.21c-0.55,8.46-2,16.86-3,25.26a7.86,7.86,0,0,1-.71,2.53,28.86,28.86,0,0,1,.27,4.89c-0.05,2.42-.38,4.83-0.55,7.19a7.69,7.69,0,0,1,.82,1.65c2.09,6.26,3.07,12.68,4.67,19,2.09,8.51,4.28,17.08,6.59,25.59,1,2.2,2.14,4.34,3.18,6.53l1.65,2.64a28.72,28.72,0,0,1,3.73,8.62,68.69,68.69,0,0,1,3.9,5.66c6.15,9.28,11,19,24.16,26,16.47,8.84,36.19,8.24,47.06-4.94a66.12,66.12,0,0,0,14.55-36v-0.16a6.81,6.81,0,0,1-.16-1.48,52.26,52.26,0,0,1,2.36-12.68,21,21,0,0,1,.71-5.22,10.58,10.58,0,0,0,0-2.64c0-3.18.05-6.31,0.05-9.5a3.71,3.71,0,0,1-.11-0.77A120.52,120.52,0,0,1,1363.43,167.18Zm-20.92-2.2c-2.25,14.44.16,28.88-1.1,43.32a158.48,158.48,0,0,1-3.13,20.26,40.46,40.46,0,0,1-4.45,12.24c-1.76,2.86-7.58,12.35-14.83,10.82a0.67,0.67,0,0,1-.66.27,16.26,16.26,0,0,1-5.6-1,0.39,0.39,0,0,1-.28-0.47v0a38.26,38.26,0,0,1-20.26-17.08,23.89,23.89,0,0,1-3.35-6.15,1.15,1.15,0,0,1-.22-0.33,24.91,24.91,0,0,1-2.25-5.11c-1.21-1.43-2.69-2.86-3.68-4.06a17,17,0,0,1-4.72-11.2,25.34,25.34,0,0,1-3.73-11.92,156.69,156.69,0,0,1-4.06-26.69,8.3,8.3,0,0,1-.55-4,20.23,20.23,0,0,1-.82-5.71,21.23,21.23,0,0,1,.16-2.64,14.94,14.94,0,0,1,2-6.31,14.13,14.13,0,0,1,.05-3.4,42.42,42.42,0,0,0-.55-10.87,84.41,84.41,0,0,1-1.43-12.3,64.67,64.67,0,0,1,.88-9.77,6,6,0,0,1-.05-1c0.38-4.94-1.26-12.52,2.58-17.74a24.41,24.41,0,0,1,1-6A42.11,42.11,0,0,1,1280,70.59a75.28,75.28,0,0,1,10.49-12.74,18,18,0,0,1,12.41-5.38C1314,52.31,1322,60,1326.91,65c5.82,6,14.61,31.35,15.48,37.34a411.45,411.45,0,0,1,.11,62.65h0Z" transform="translate(-1250.15 -40.93)" style="fill:#111820"/></svg>