<svg xmlns="http://www.w3.org/2000/svg" viewBox="0 0 715.26 572.83"><path d="M714.1,259.7c-1.5,11.2-3,22-8.3,31.6-3.1,5.6-8.5,10.1-11.3,15.8-4.4,9.1-11.8,14.9-19.7,20-4.6,3-10.6,4.6-16.2,5.4-8.8,1.3-17.8,2.3-26.6,1.9-8.3-.3-16.5-2.8-24.7-3.9a25.35,25.35,0,0,0-9.1.7c-10.8,2.6-21.4,5.9-32.8,6.7-12.9.9-25.6,3.2-38.4,4.8-10.6,1.4-21.4,2-31.8,4.2s-21,4.7-30.7,9.1c-15.9,7.1-31.3,15.4-46.6,23.9-6.1,3.4-10.9,9-16.6,13-12.8,9-23.2,20.5-34.2,31.5-5.2,5.1-9.5,11.2-14.6,16.4a240.26,240.26,0,0,1-20.1,19c-11.3,9.3-23,18.2-34.8,26.9a270,270,0,0,1-27.1,17.9c-6.9,3.9-14.7,6.2-22.2,9.2-14.4,5.7-25.1,14.8-30.6,29.8-4.8,13.1-14.5,21.6-27.6,26.2-11.2,3.9-22.8,5-32.9-1.2-11.4-6.9-22.1-15.1-29.1-27.2-2.8-4.9-5.7-9.5-7-15.1-2-8.3-9.1-12.2-14.9-17.5C95.1,498.6,80.3,494.3,68.5,485c-10.9-8.5-20-17.9-24.4-31.4-2.5-7.7-6.6-15-9.2-22.7-6-17.7-6.2-36.2-5.7-54.6a95,95,0,0,1,1-10.6c1.4-9.9,2.6-19.9,4.4-29.7,1.5-8,4.1-15.8,1.5-24a10,10,0,0,0-1-2.1c-5.1-8-9.6-16.6-15.7-23.9C11.9,276.9,8.2,266.4,4,255.8A57.42,57.42,0,0,1-.1,232.9c.4-12.4,4.6-23.2,11.7-33.2,7.4-10.6,14.8-21.5,26.2-27.8,12-6.6,24.5-12.1,38.1-15.4,7.7-1.9,15-4.3,22.9-3.6,6.2.5,12.4,1.6,18.7,1.8,3.2.1,6.9-.4,9.6-2,9.8-5.6,20.8-8.8,29.7-16.7,8.7-7.8,19.1-13.9,29.1-20,7.6-4.7,16.1-7.9,23.8-12.5,14.2-8.4,29.7-13.6,44.9-19.6,12.8-5,25.7-9.7,38.7-13.9,16.3-5.3,32.7-10.4,49.3-15,10.5-2.9,21.5-4.4,32-7.3a23.81,23.81,0,0,0,10.9-7.1c8.8-9.8,16.3-21,25.8-30.1,8.4-8.1,19.3-12.1,31.6-9.6,3.9.8,8.3.4,11.6,2.2,12.7,7.2,22.6,16.8,26.7,31.6,1.5,5.2,5.1,10.1,8.6,14.3,3.7,4.5,9.2,7.6,12.8,12.2,7.7,10,20.3,11.7,29.8,18.6,12.5,9.1,25.7,17.3,37.7,27,8.3,6.7,14.9,15.3,22.4,23,3.7,3.8,7.6,7.4,11.2,11.3,7.3,7.8,14,16.2,21.7,23.4,6.2,5.8,13.5,10.6,20.7,15.1,2.7,1.7,6.7,2,10.1,2.1,12.3.2,21.9,6.1,30.9,13.7A88.22,88.22,0,0,1,709.6,223c5.4,10.6,6,22.1,5.3,33.8.2.8-.4,1.6-.8,2.9m-412,63.5a12.2,12.2,0,0,0-.7,1.7,202.45,202.45,0,0,1-17.3,47.8c-7.1,13.6-13.5,27.5-21.1,40.7-10.3,17.8-21.1,35.3-35.4,50.3-8.1,8.5-6.6,24.2-.1,29,5.5,4,11.9,3.4,17.9,3.7,12.3.8,23.6-4,33.2-11.1a510.57,510.57,0,0,0,40.9-33.9c11.4-10.6,21.5-22.7,32.4-34,6.9-7.1,14.7-13.3,21.3-20.7,5.5-6.1,11.9-10.8,18.6-15.4,7.1-4.9,13.3-11,20.6-15.6,16.8-10.5,34-20.3,53.2-26.1,9.7-2.9,19.2-5.9,29.5-6.1a115.67,115.67,0,0,0,17.6-2c12.6-2.1,25-5.5,37.7-6.6,9.9-.9,18.5-3.5,26.2-9.4a10.8,10.8,0,0,0,3.5-5.9c1.6-7.3-2.8-13.4-4.5-20.1-1.7-6.9-3.8-13.8-5.4-20.7-1.6-7.2-2.1-14.8-4.2-21.8-2.2-7.2-3.2-15.3-9.5-20.5a85.68,85.68,0,0,0-13.3-8.9c-8.2-4.4-17-7.2-25.9-10-14.8-4.6-29.8-6.1-45-7.1-11-.8-21.6,1.7-32.1,4.5-5,1.3-10.3,1.7-15.1,3.3-13.8,4.5-27.5,9.1-41.1,14.1-12.7,4.7-25.2,9.9-37.9,14.7-7.8,3-15.7,5.7-23.5,8.4-4.6,1.6-5.8,5-6.4,9.3-.9,6.2-2.1,12.4-3.3,18.6-1.8,9.4-3.6,18.8-5.6,28.2-1.7,7.1-3.5,13.8-5.2,21.6m-40,59c2.5-5.1,5.1-10.2,7.4-15.4,6.3-14.4,12.8-28.7,18.5-43.3,6.2-15.8,7.7-32.8,11.1-49.4,1-5.1,2-10.2,3-15.2.2-1,.4-2,.7-3-1.1,0-2.3-.3-3.3.1-3.5,1.3-6.8,2.9-10.3,4.2-17.4,6.2-33.6,15.7-52.1,19.1-7.8,1.4-15.7,2.6-23.5,3.4-3.3.3-6.7-1.1-10.1-.8-8.8.7-17.7,1.1-26.2,3.1-15.4,3.5-29.6,10.4-43.9,17.1-8.7,4.1-16.9,9.2-25.8,12.5-10.4,3.9-21,6.5-32.5,2.6-3.7-1.3-10-.5-12.8,2-5.9,5.3-11.5,11.8-15,18.8-6.4,13.2-3.5,28.2-5.1,42.3-.6,5.7.2,11.7.9,17.6s1.4,12,3.1,17.7c2.8,9.3,6.6,18.3,9.5,27.5a50,50,0,0,0,17.8,25.5c13.9,10.2,28.8,19,45,25.2,1.6.6,3.9,1.2,5.3.5,6.1-2.7,12.2-5.3,17.8-8.8,6-3.8,11.2-9,17.3-12.5,11.3-6.4,24.4-6.1,36.7-9,5.7-1.4,11.7-1.8,15.6-6.9l26.7-35.4a216.45,216.45,0,0,0,24.2-39.5m45-151c2.7-7.1,5.2-14.2,8-21.2,6.9-17.3,12.7-35.2,21.3-51.6,9.3-17.5,21.5-33.4,35.3-47.9,6.5-6.9,13.9-12.9,18.2-21.9,3.9-8.2-.7-23-9.3-25.8a7.57,7.57,0,0,0-1.5-.1c-6.2.3-12.7-.4-18.5,1.2-20,5.4-40,11-59.7,17.6-21.6,7.3-43.3,14.7-63.9,24.2-19.5,8.9-39.9,16.6-57,30.1-8.1,6.3-16.2,12.7-23.8,19.5-3.7,3.3-7.3,7.5-6.1,13.4a103.61,103.61,0,0,0,2.8,11.3c6,17.5,11.7,35,11.1,53.8-.3,10.5,5.2,17.8,12.9,23.9,6.7,5.3,15,4.2,22.5,4.7,11.1.7,22.4-.4,33.6-.7a6.28,6.28,0,0,0,1.9-.3c12.7-3.9,25.5-7.5,38.1-11.8,9.6-3.2,19.1-6.9,28.4-11,2.4-1,3.9-4.2,5.7-7.4m284.5-31.5c3.7-2.7,7.6-5.2,11.1-8.2,8.8-7.3,9.4-12.1,5.3-20a53.27,53.27,0,0,0-7.3-11.5c-7.4-8.5-15.2-16.7-22.8-25-4.1-4.5-7.7-9.6-12.5-13.2-11.2-8.7-22.6-17.4-34.7-24.9-11.7-7.2-24.2-13-36.5-19.1-7.5-3.7-20.3,0-25.2,6.7a27.62,27.62,0,0,1-18.9,11.3c-12.1,1.7-24.3,3-36.4,5.2-7,1.3-14.3,1.9-19.7,8.1-4.1,4.7-9.6,8.2-14.2,12.5-6.7,6.4-13.6,12.8-19.6,19.8a93.83,93.83,0,0,0-12.1,17.9,269.87,269.87,0,0,0-18.2,44.5c-2.3,7.4-4.9,14.6-7.3,21.9a35.89,35.89,0,0,0-.8,3.5,17.54,17.54,0,0,0,4.1-.9c3.6-1.7,7.1-3.9,10.8-5.4,11.8-4.8,24.2-8.6,35.5-14.3a103.62,103.62,0,0,1,28-9.8c10.3-2,20.4-4.7,30.6-6.9,8.8-1.9,17.6-4.3,26.4-4.8,11.8-.6,23.7.3,35.6.8a117.76,117.76,0,0,1,13.3,1.6c8.1,1.3,16.2,2.7,24.2,4.4,10.7,2.2,21.5,4.2,32.1,7,9.8,2.5,19,3.3,29.2-1.2M23.1,225.2c-.5,5.5-1.8,11.1-1.3,16.4.5,5.6,2.5,11.2,4.4,16.6,4.3,12.6,10.7,24,22.9,30.8,5.1,2.8,10.3,6.6,15.8,7.3,8.9,1.2,17.9,1.9,27.3.8,14.1-1.7,24.3-9.6,33.4-18.1,12.7-12,17.8-28.5,18.5-46.1.2-5,.2-10.1,0-15.2a53.63,53.63,0,0,0-1-10.6c-2.4-9.1-5.3-17.6-13.5-23.9-16.4-12.5-34.6-13.4-53.2-8.4-13.7,3.7-25,12.4-35.2,22.2a74.06,74.06,0,0,0-18.1,28.2m566,36c1,7.1,1.6,14.2,3.1,21.2,3.5,16.8,21.9,31.9,38.9,32.2,17.7.4,33.1-4.7,44.5-19,9.9-12.4,20.5-24.5,22.9-41,.9-6.1,1.6-12.5.5-18.4-2.2-11.4-10.4-18-20.2-24s-19.1-10-30.6-7.6c-3.1.6-6.1,1.7-9.2,1.9-14.1,1.2-25.9,6.3-35.2,17.6-8.7,10.8-13.8,22.5-14.7,37.1M174.6,487.7c-11.3,4.7-20.5,11.9-25.4,23.4-1.3,3.1-3.1,6.6-2.8,9.7.8,8.6,2.7,16.8,8.7,23.9,6.8,8.1,13.4,13.2,25.3,8.2a70.15,70.15,0,0,0,14.5-8.4c8.8-6.6,12.2-16.5,12-26.8-.1-6.2-3.1-12.6-5.8-18.4-2.6-5.6-5.5-12-12.8-12.8-4.3-.5-8.8.4-13.7,1.2m251-411c3.6,2.9,7.6,2.4,11.8,2.1a28.18,28.18,0,0,0,19.8-9.9,40.23,40.23,0,0,0,9.9-29.8c-.5-7.5-10.3-18.8-17.5-19.3-13.6-.9-25.8,1.1-33.8,14.5-6.2,10.4-8.2,30.7,3,38.5A30.49,30.49,0,0,0,425.6,76.7Z" transform="translate(0.12 -0.16)" style="fill:#343638"/></svg>