<svg xmlns="http://www.w3.org/2000/svg" viewBox="0 0 1422.57 51.55"><title>line</title><path d="M1391.16,389.29c-15.88-.32-31.8.67-47.65,1.18-41.81,1.31-83.51,4.2-125.42,3.51-49.71-.79-99.64-4.8-149.47-7.07-9-.42-18.05,1-27.15,1.17-43.08.88-86.21,2.89-129.41,2-48-1-96-4.84-144.13-7-38.45-1.73-77.3-1.46-115.25-4.51-52.73-4.22-102.14,2.32-153.48,1.83-26.83-.27-54-1.43-80.32-0.38-74.43,2.94-148.24,7.51-222.77,10.08-42.49,1.48-85.79.48-128.78,0.24-28.52-.14-56.1,4.44-54.09,12.57,1.49,5.38,84.48,20.5,104.32,20.74,26.71-.63,48-2.88,72.1-3.6a406.43,406.43,0,0,1,56.26-.68c21.07,2.23,41.81,5.36,63,6.06,17.32,0.57,34.59,1.73,51.81,3.27l0.54-.06c74.32-2.57,85.61-11.63,129.07-6.91a109.51,109.51,0,0,0,29.47-.89H520a618.76,618.76,0,0,1,70.22-7.4,837.72,837.72,0,0,1,138.21,6,472.19,472.19,0,0,0,70.94,5.21c23.32-.71,46.54-3.27,69.84-4.48,49.52-2.59,99.64,1,149.23,1.25s99.35,0.21,149,1c40.54,0.68,81.19,1.41,121.8,1a472.08,472.08,0,0,0,90.69-9.8q12.93-2.67,25.84-5.4c10.89-2.4,29.91-8.76,29.92-13.14C1435.71,393.19,1396.24,389.42,1391.16,389.29Z" transform="translate(-13.12 -377.17)" style="fill:#FFB600"/></svg>
