<svg id="Contours" xmlns="http://www.w3.org/2000/svg" viewBox="0 0 1354.75 1350.85"><defs><style>.cls-1{fill:#009b8b;}.cls-2{fill:#fff;}</style></defs><path class="cls-1" d="M1293.5,411.8c-76.6-169.2-221.7-307.3-396.4-370.7S520.5-8.8,358.2,81.8c-62.3,34.8-118.3,80-170,129.2C140.9,256,96.5,305.2,65,362.5,22.5,439.9,5.3,529.1,1,617.3c-6.4,133,16.1,268.7,75.3,387.9s156.6,221.2,277.9,276c58.9,26.6,122.3,41.9,185.9,53.4,147.6,26.5,306.7,31.3,440.6-36.3,57.7-29.1,108.4-70.6,154.9-115.6,52.1-50.5,99.8-106.2,136.4-168.9C1377,833.6,1379.6,601.8,1293.5,411.8Zm-200.1,775.6c-2.1,7.1-7.9,12.4-13.5,17.3a671.74,671.74,0,0,1-65.3,50,1029.51,1029.51,0,0,0-55.9-288.6c-2.3-6.7-6.2-14.5-13.2-15q27.6,126.75,55.3,253.4c5.5,25.1,7.5,58-15.4,69.6-81.9,41.3-174.6,58.2-266.3,58s-182.7-16.8-271.5-39.8c-5.8-1.5-12.1-3.4-15.6-8.3-2.6-3.7-3.1-8.5-3.4-13.1a1216.31,1216.31,0,0,1,10.6-278.2c1.5-10,0-24.3-10.1-24.7A1269.62,1269.62,0,0,0,417,1282.5a377.7,377.7,0,0,1-85.6-34.4c-4.4-2.5-9-5.2-11.7-9.4-3.6-5.4-3.6-12.4-3.4-18.9a2702.06,2702.06,0,0,1,22.4-291.2c10.1-76.9,26.9-159.8,85.5-210.7,54.6-47.5,139.6-61.3,174.6-124.7,13.8-24.9,17.4-54,27.5-80.5s30.7-52.8,59-55.1c30.6-2.5,56.3,24.2,68.2,52.5s15.1,59.7,28,87.6c39.1,84,149.4,106.6,210.4,176.3,19.8,22.6,33.9,49.8,44,78.2,14.2,39.9,20.8,82.1,27.3,124q15,96.9,30.1,193.8C1094.2,1175.6,1095.1,1181.7,1093.4,1187.4Zm26.4-29c-4.7-86-9.6-172.9-33.5-255.6s-69-162.2-139.7-211.5c-47.9-33.4-109.2-55.4-134.9-107.8-15.7-32-14.9-70.5-32.1-101.7-28.8-52.5-110.1-65.5-153.8-24.7-39.9,37.3-43,100.7-77.5,143.1-35.4,43.7-96,56.4-142.5,88.1C328,741.2,297.4,841.4,290.1,935.2s3,189.4-17.2,281.2C85.6,1066.1-.5,810.8,23.2,571.8c5.9-59.7,18.2-119.4,44.2-173.4C94,343,134.2,295.3,177,251.2,243.2,182.9,317.7,121.1,403.5,80,534.6,17,688.7,5.8,829,43.7s266.5,123.7,357.9,236.8c38.9,48.1,71.8,101.2,96.3,158,52.1,120.8,64.7,258.3,35.6,386.6S1219,1071.9,1119.8,1158.4Z" transform="translate(0.05 -1.91)"/><path class="cls-2" d="M1093.4,1187.4c-2.1,7.1-7.9,12.4-13.5,17.3a671.74,671.74,0,0,1-65.3,50,1029.51,1029.51,0,0,0-55.9-288.6c-2.3-6.7-6.2-14.5-13.2-15q27.6,126.75,55.3,253.4c5.5,25.1,7.5,58-15.4,69.6-81.9,41.3-174.6,58.2-266.3,58s-182.7-16.8-271.5-39.8c-5.8-1.5-12.1-3.4-15.6-8.3-2.6-3.7-3.1-8.5-3.4-13.1a1216.31,1216.31,0,0,1,10.6-278.2c1.5-10,0-24.3-10.1-24.7A1269.62,1269.62,0,0,0,417,1282.5a377.7,377.7,0,0,1-85.6-34.4c-4.4-2.5-9-5.2-11.7-9.4-3.6-5.4-3.6-12.4-3.4-18.9a2702.06,2702.06,0,0,1,22.4-291.2c10.1-76.9,26.9-159.8,85.5-210.7,54.6-47.5,139.6-61.3,174.6-124.7,13.8-24.9,17.4-54,27.5-80.5s30.7-52.8,59-55.1c30.6-2.5,56.3,24.2,68.2,52.5s15.1,59.7,28,87.6c39.1,84,149.4,106.6,210.4,176.3,19.8,22.6,33.9,49.8,44,78.2,14.2,39.9,20.8,82.1,27.3,124q15,96.9,30.1,193.8C1094.2,1175.6,1095.1,1181.7,1093.4,1187.4Z" transform="translate(0.05 -1.91)"/><path class="cls-1" d="M1283.2,438.5c-24.5-56.8-57.4-109.9-96.3-158C1095.6,167.4,969.4,81.6,829,43.7S534.6,17,403.5,79.9C317.7,121.1,243.2,182.8,177,251.2,134.2,295.3,94,343,67.4,398.4c-26,54-38.3,113.7-44.2,173.4C-.5,810.8,85.6,1066.1,273,1216.4c20.2-91.9,9.9-187.5,17.2-281.2s37.9-194,115.7-246.9c46.5-31.6,107.1-44.4,142.5-88.1,34.4-42.4,37.5-105.8,77.5-143.1,43.7-40.9,125.1-27.9,153.8,24.7,17.1,31.3,16.4,69.7,32.1,101.7,25.7,52.4,87,74.4,134.9,107.8,70.7,49.2,115.7,128.7,139.7,211.5s28.8,169.6,33.5,255.6c99.1-86.5,169.9-205,199-333.3S1335.3,559.3,1283.2,438.5ZM327,590.1c-3.1,5.5-9.2,8.4-14.9,11.1-16.3,7.8-32.5,17-44,31.1-9,11.1-14.5,24.7-19,38.4a349.11,349.11,0,0,0-17.3,99.8c-.2,8.5-1.1,18.8-8.8,22.5-5.7,2.8-12.9.2-17.3-4.4s-6.5-10.9-8.5-16.9c-15.1-46.7-26-98-61.8-131.5a118.17,118.17,0,0,0-49.5-27.5c-7.8-2.1-16.5-3.7-22.1-9.5s-5.3-17.9,2.5-20.2c34.3-10.2,63.4-34.9,82.6-65.2s29-65.8,32.2-101.5c.8-8.7,3.3-19.8,11.9-20.8,5.7-.7,10.7,3.8,14,8.5,14.2,19.5,16,44.9,21.8,68.3,5.8,23.6,16.2,46.4,32.1,64.8s37.3,32.5,61.1,37.5C328.3,575.9,330.1,584.6,327,590.1ZM562.2,348.5c-32.8,8.9-59.4,34.2-75.9,63.9s-23.9,63.6-28.1,97.3c-.7,5.7-9.3,7.2-13.8,3.6s-6-9.7-7.3-15.4a384.38,384.38,0,0,0-22.3-67.8c-7.9-18.2-18.1-36.7-35.3-46.7-6.6-3.9-14-6.2-21.4-8.6-8.9-2.9-17.8-5.8-26.8-8.6-7.5-2.4-16.7-7.1-15.9-15,.8-8.5,11.8-10.8,20.2-12.4,27.9-5.4,50.4-27.8,62.1-53.7s14-55.1,13.6-83.5c-.1-6-.3-12.2,1.9-17.8s7.3-10.5,13.3-10.3c7.8.2,12.8,8.2,15.8,15.4,11.1,26.7,15.5,56.2,29.6,81.4a119.26,119.26,0,0,0,76.8,57.5c5.6,1.3,11.7,2.4,15.6,6.5S567.8,347,562.2,348.5Zm495.9-54c-21.9,8.5-43.1,20.6-58,38.8-7.3,8.9-12.9,18.9-18.4,29-4.5,8.1-9,16.2-13,24.5A253.88,253.88,0,0,0,948,448c-.8,3.8-6.1,4.8-9.3,2.8s-4.8-5.9-6.1-9.5c-15.1-40.8-31.4-85.1-68-108.6-16.2-10.4-35.1-15.7-51.5-25.8-4.4-2.7-9.1-6.9-8.4-12,.6-4.3,4.7-7.1,8.4-9.4a182.39,182.39,0,0,0,70.1-84.6c3.9-9.7,7-19.7,10-29.7,4.8-15.6,9.5-31.2,14.3-46.8,8.3-2.6,17.5,2.5,22.5,9.7s7,15.9,9.4,24.3c16.2,55.8,61.6,104.7,118.6,116,4.8.9,10.5,2.4,11.9,7.1C1071.6,287.7,1064.1,292.2,1058.1,294.5Zm216.6,335.2c-5.9,3.9-13,5.7-19.5,8.5-20,8.4-34.9,26.3-43.5,46.3s-11.5,41.8-12.8,63.5c-.4,7.9-2.8,18.1-10.6,18.7-7.6.6-11.7-8.6-13.6-16-5.8-22.8-12.9-45.5-25-65.6s-29.8-37.6-51.9-45.7c-8.7-3.2-19.7-6.8-20.7-16-.8-7.9,6.6-13.8,12.7-18.8,31.7-26,45.7-67.9,52.5-108.4,1.4-8.6,2.8-17.7,8.5-24.4s17.2-9.1,22.8-2.5c10.9,12.7,13.1,30.5,17.8,46.6,12.8,44.4,48.6,81.5,92.5,96C1285.3,618.7,1280.6,625.8,1274.7,629.7Z" transform="translate(0.05 -1.91)"/><path class="cls-2" d="M327,590.1c-3.1,5.5-9.2,8.4-14.9,11.1-16.3,7.8-32.5,17-44,31.1-9,11.1-14.5,24.7-19,38.4a349.11,349.11,0,0,0-17.3,99.8c-.2,8.5-1.1,18.8-8.8,22.5-5.7,2.8-12.9.2-17.3-4.4s-6.5-10.9-8.5-16.9c-15.1-46.7-26-98-61.8-131.5a118.17,118.17,0,0,0-49.5-27.5c-7.8-2.1-16.5-3.7-22.1-9.5s-5.3-17.9,2.5-20.2c34.3-10.2,63.4-34.9,82.6-65.2s29-65.8,32.2-101.5c.8-8.7,3.3-19.8,11.9-20.8,5.7-.7,10.7,3.8,14,8.5,14.2,19.5,16,44.9,21.8,68.3,5.8,23.6,16.2,46.4,32.1,64.8s37.3,32.5,61.1,37.5C328.3,575.9,330.1,584.6,327,590.1Z" transform="translate(0.05 -1.91)"/><path class="cls-2" d="M1058.1,294.5c-21.9,8.5-43.1,20.6-58,38.8-7.3,8.9-12.9,18.9-18.4,29-4.5,8.1-9,16.2-13,24.5A253.88,253.88,0,0,0,948,448c-.8,3.8-6.1,4.8-9.3,2.8s-4.8-5.9-6.1-9.5c-15.1-40.8-31.4-85.1-68-108.6-16.2-10.4-35.1-15.7-51.5-25.8-4.4-2.7-9.1-6.9-8.4-12,.6-4.3,4.7-7.1,8.4-9.4a182.39,182.39,0,0,0,70.1-84.6c3.9-9.7,7-19.7,10-29.7,4.8-15.6,9.5-31.2,14.3-46.8,8.3-2.6,17.5,2.5,22.5,9.7s7,15.9,9.4,24.3c16.2,55.8,61.6,104.7,118.6,116,4.8.9,10.5,2.4,11.9,7.1C1071.6,287.7,1064.1,292.2,1058.1,294.5Z" transform="translate(0.05 -1.91)"/><path class="cls-2" d="M562.2,348.5c-32.8,8.9-59.4,34.2-75.9,63.9s-23.9,63.6-28.1,97.3c-.7,5.7-9.3,7.2-13.8,3.6s-6-9.7-7.3-15.4a384.38,384.38,0,0,0-22.3-67.8c-7.9-18.2-18.1-36.7-35.3-46.7-6.6-3.9-14-6.2-21.4-8.6-8.9-2.9-17.8-5.8-26.8-8.6-7.5-2.4-16.7-7.1-15.9-15,.8-8.5,11.8-10.8,20.2-12.4,27.9-5.4,50.4-27.8,62.1-53.7s14-55.1,13.6-83.5c-.1-6-.3-12.2,1.9-17.8s7.3-10.5,13.3-10.3c7.8.2,12.8,8.2,15.8,15.4,11.1,26.7,15.5,56.2,29.6,81.4a119.26,119.26,0,0,0,76.8,57.5c5.6,1.3,11.7,2.4,15.6,6.5S567.8,347,562.2,348.5Z" transform="translate(0.05 -1.91)"/><path class="cls-2" d="M1274.7,629.7c-5.9,3.9-13,5.7-19.5,8.5-20,8.4-34.9,26.3-43.5,46.3s-11.5,41.8-12.8,63.5c-.4,7.9-2.8,18.1-10.6,18.7-7.6.6-11.7-8.6-13.6-16-5.8-22.8-12.9-45.5-25-65.6s-29.8-37.6-51.9-45.7c-8.7-3.2-19.7-6.8-20.7-16-.8-7.9,6.6-13.8,12.7-18.8,31.7-26,45.7-67.9,52.5-108.4,1.4-8.6,2.8-17.7,8.5-24.4s17.2-9.1,22.8-2.5c10.9,12.7,13.1,30.5,17.8,46.6,12.8,44.4,48.6,81.5,92.5,96C1285.3,618.7,1280.6,625.8,1274.7,629.7Z" transform="translate(0.05 -1.91)"/></svg>